<?xml version="1.0" encoding="UTF-8" standalone="no"?><!DOCTYPE svg PUBLIC "-//W3C//DTD SVG 1.1//EN" "http://www.w3.org/Graphics/SVG/1.1/DTD/svg11.dtd"><svg width="100%" height="100%" viewBox="0 0 45 48" version="1.1" xmlns="http://www.w3.org/2000/svg" xmlns:xlink="http://www.w3.org/1999/xlink" xml:space="preserve" xmlns:serif="http://www.serif.com/" style="fill-rule:evenodd;clip-rule:evenodd;stroke-linejoin:round;stroke-miterlimit:2;"><rect id="Artboard1" x="0" y="0" width="44.94" height="48" style="fill:none;"/><path id="Harp" d="M13.949,37.062l-2.791,0l0,-2.545c0,-0.327 -0.193,-0.608 -0.471,-0.737l0,-21.34l0.227,0c0.448,0 0.81,-0.362 0.81,-0.81l0,-0.692c0.163,-0.023 0.368,-0.05 0.605,-0.074l-0,24.933l1.62,0l-0,-25.015c0.299,0.002 0.611,0.013 0.93,0.037l0,22.315l1.621,-0l-0,-22.064c0.316,0.077 0.629,0.174 0.931,0.292l-0,19.108l1.62,-0l0,-18.122c0.393,0.363 0.708,0.793 0.95,1.293l-0.019,0l-0,14.165l1.62,0l-0,-10.559c0.235,0.109 0.497,0.171 0.774,0.171l0.157,0l0,7.724l1.62,0l0,-7.724l0.931,0l0,5.061l1.62,-0l0,-5.061l0.932,0l-0,2.397l1.619,-0l0,-2.397l2.557,0l-17.863,19.644Zm25.296,-22.836c-0.133,-0.284 -0.419,-0.465 -0.732,-0.465l-2.459,0l-0,-0.001l-12.139,0c-0.498,-1.971 -1.534,-3.543 -3.085,-4.679c-2.996,-2.197 -7.064,-2.076 -9.106,-1.836l0,-0.435c0,-0.447 -0.362,-0.81 -0.81,-0.81l-4.487,0c-0.447,0 -0.809,0.363 -0.809,0.81l-0,4.82c-0,0.448 0.362,0.81 0.809,0.81l0.227,0l0,21.34c-0.278,0.129 -0.471,0.41 -0.471,0.737l0,6.673c0,0.447 0.363,0.81 0.81,0.81l12.292,-0c0.447,-0 0.809,-0.363 0.809,-0.81l0,-3.027l19.043,-23.076c0.2,-0.242 0.242,-0.577 0.108,-0.861Z" style="fill:#bebebe;fill-rule:nonzero;"/><g id="Notes"><path d="M28.877,32.961l0.222,-0c0.672,-0 1.116,0.027 1.331,0.082c0.308,0.078 0.58,0.228 0.814,0.451c0.176,0.164 0.314,0.396 0.416,0.694c0.102,0.299 0.152,0.648 0.152,1.046l0,0.604l-0.58,-0l0,-0.252c0,-0.266 -0.055,-0.491 -0.167,-0.677c-0.111,-0.185 -0.276,-0.327 -0.495,-0.425c-0.285,-0.125 -0.601,-0.187 -0.949,-0.187l-0.164,-0l-0,4.892c-0,0.473 -0.063,0.841 -0.188,1.105c-0.125,0.264 -0.339,0.474 -0.644,0.633c-0.305,0.158 -0.637,0.237 -0.996,0.237c-0.426,-0 -0.763,-0.12 -1.011,-0.36c-0.248,-0.241 -0.372,-0.556 -0.372,-0.947c-0,-0.41 0.148,-0.755 0.445,-1.034c0.297,-0.279 0.686,-0.419 1.166,-0.419c0.305,0 0.645,0.09 1.02,0.27l-0,-5.713Z" style="fill:#bebebe;fill-rule:nonzero;"/><path d="M26.094,2.579l0.222,0c0.672,0 1.115,0.028 1.33,0.082c0.309,0.078 0.58,0.229 0.815,0.451c0.176,0.165 0.314,0.396 0.416,0.695c0.101,0.299 0.152,0.647 0.152,1.046l0,0.603l-0.58,0l0,-0.252c0,-0.265 -0.056,-0.491 -0.167,-0.677c-0.111,-0.185 -0.276,-0.327 -0.495,-0.424c-0.285,-0.125 -0.602,-0.188 -0.949,-0.188l-0.164,0l-0,4.893c-0,0.472 -0.063,0.841 -0.188,1.104c-0.125,0.264 -0.34,0.475 -0.644,0.633c-0.305,0.158 -0.637,0.237 -0.996,0.237c-0.426,0 -0.763,-0.12 -1.011,-0.36c-0.248,-0.24 -0.372,-0.556 -0.372,-0.946c-0,-0.41 0.148,-0.755 0.445,-1.034c0.297,-0.28 0.686,-0.419 1.166,-0.419c0.305,-0 0.645,0.089 1.02,0.269l-0,-5.713Z" style="fill:#bebebe;fill-rule:nonzero;"/><path d="M39.17,19.821l0.223,-0c0.672,-0 1.115,0.027 1.33,0.082c0.309,0.078 0.58,0.228 0.814,0.451c0.176,0.164 0.315,0.396 0.416,0.694c0.102,0.299 0.153,0.648 0.153,1.046l-0,0.604l-0.58,-0l-0,-0.252c-0,-0.266 -0.056,-0.491 -0.167,-0.677c-0.112,-0.185 -0.277,-0.327 -0.495,-0.425c-0.286,-0.125 -0.602,-0.187 -0.95,-0.187l-0.164,-0l0,4.892c0,0.473 -0.062,0.841 -0.187,1.105c-0.125,0.264 -0.34,0.474 -0.645,0.633c-0.304,0.158 -0.636,0.237 -0.996,0.237c-0.426,-0 -0.762,-0.12 -1.01,-0.36c-0.249,-0.241 -0.373,-0.556 -0.373,-0.947c0,-0.41 0.149,-0.755 0.446,-1.034c0.297,-0.279 0.685,-0.419 1.166,-0.419c0.304,0 0.644,0.09 1.019,0.27l0,-5.713Z" style="fill:#bebebe;fill-rule:nonzero;"/></g></svg>