<?xml version="1.0" encoding="UTF-8" standalone="no"?><!DOCTYPE svg PUBLIC "-//W3C//DTD SVG 1.1//EN" "http://www.w3.org/Graphics/SVG/1.1/DTD/svg11.dtd"><svg width="100%" height="100%" viewBox="0 0 45 48" version="1.1" xmlns="http://www.w3.org/2000/svg" xmlns:xlink="http://www.w3.org/1999/xlink" xml:space="preserve" xmlns:serif="http://www.serif.com/" style="fill-rule:evenodd;clip-rule:evenodd;stroke-linejoin:round;stroke-miterlimit:2;"><rect id="Artboard1" x="0" y="0" width="44.94" height="48" style="fill:none;"/><path id="Harp" d="M13.949,37.062l-2.791,0l0,-2.545c0,-0.327 -0.193,-0.608 -0.471,-0.737l0,-21.34l0.227,0c0.448,0 0.81,-0.362 0.81,-0.81l0,-0.692c0.163,-0.023 0.368,-0.05 0.605,-0.074l-0,24.933l1.62,0l-0,-25.015c0.299,0.002 0.611,0.013 0.93,0.037l0,22.315l1.621,-0l-0,-22.064c0.316,0.077 0.629,0.174 0.931,0.292l-0,19.108l1.62,-0l0,-18.122c0.393,0.363 0.708,0.793 0.95,1.293l-0.019,0l-0,14.165l1.62,0l-0,-10.559c0.235,0.109 0.497,0.171 0.774,0.171l0.157,0l0,7.724l1.62,0l0,-7.724l0.931,0l0,5.061l1.62,-0l0,-5.061l0.932,0l-0,2.397l1.619,-0l0,-2.397l2.557,0l-17.863,19.644Zm25.296,-22.836c-0.133,-0.284 -0.419,-0.465 -0.732,-0.465l-2.459,0l-0,-0.001l-12.139,0c-0.498,-1.971 -1.534,-3.543 -3.085,-4.679c-2.996,-2.197 -7.064,-2.076 -9.106,-1.836l0,-0.435c0,-0.447 -0.362,-0.81 -0.81,-0.81l-4.487,0c-0.447,0 -0.809,0.363 -0.809,0.81l-0,4.82c-0,0.448 0.362,0.81 0.809,0.81l0.227,0l0,21.34c-0.278,0.129 -0.471,0.41 -0.471,0.737l0,6.673c0,0.447 0.363,0.81 0.81,0.81l12.292,-0c0.447,-0 0.809,-0.363 0.809,-0.81l0,-3.027l19.043,-23.076c0.2,-0.242 0.242,-0.577 0.108,-0.861Z" style="fill:#bebebe;fill-rule:nonzero;"/></svg>